<svg fill="none" height="52" viewBox="0 0 52 52" width="52" xmlns="http://www.w3.org/2000/svg"><rect fill="#e9eff5" height="52" rx="4" width="52"/><g fill="#0675c4"><path clip-rule="evenodd" d="m26 38.5c6.9036 0 12.5-5.5964 12.5-12.5s-5.5964-12.5-12.5-12.5-12.5 5.5964-12.5 12.5 5.5964 12.5 12.5 12.5zm0 2.5c8.2843 0 15-6.7157 15-15s-6.7157-15-15-15-15 6.7157-15 15 6.7157 15 15 15z" fill-rule="evenodd"/><path d="m24.3333 26 1.6667-8.3333 1.6667 8.3333z"/><path d="m26 27.6667c.9205 0 1.6667-.7462 1.6667-1.6667h-3.3334c0 .9205.7462 1.6667 1.6667 1.6667z"/><path d="m27.3574 24.9741 4.714 7.0711-7.071-4.7141z"/></g></svg>