<svg width="31" height="32" viewBox="0 0 31 32" fill="none" xmlns="http://www.w3.org/2000/svg">
<rect y="0.5" width="31" height="31" rx="15.5" fill="#D63638"/>
<path fill-rule="evenodd" clip-rule="evenodd" d="M15.5 10.5625C12.497 10.5625 10.0625 12.997 10.0625 16C10.0625 19.003 12.497 21.4375 15.5 21.4375C18.503 21.4375 20.9375 19.003 20.9375 16C20.9375 12.997 18.503 10.5625 15.5 10.5625ZM8.9375 16C8.9375 12.3756 11.8756 9.4375 15.5 9.4375C19.1244 9.4375 22.0625 12.3756 22.0625 16C22.0625 19.6244 19.1244 22.5625 15.5 22.5625C11.8756 22.5625 8.9375 19.6244 8.9375 16Z" fill="white"/>
<path d="M16.25 12.25H14.75V16.75H16.25V12.25Z" fill="white"/>
<path d="M16.25 18.25H14.75V19.75H16.25V18.25Z" fill="white"/>
</svg>
