<svg fill="none" height="52" viewBox="0 0 52 52" width="52" xmlns="http://www.w3.org/2000/svg"><rect fill="#e9eff5" height="52" rx="4" width="52"/><path clip-rule="evenodd" d="m11.4167 26.0001c0-8.0542 6.5292-14.5834 14.5834-14.5834 8.0541 0 14.5833 6.5292 14.5833 14.5834 0 8.0541-6.5292 14.5833-14.5833 14.5833-8.0542 0-14.5834-6.5292-14.5834-14.5833zm3.7792-5.4167c1.5001-2.9863 4.2019-5.2648 7.4708-6.201-.7743.8986-1.4403 1.9598-1.9841 3.1264-.4419.9481-.81 1.9796-1.0938 3.0746zm-.9248 2.5c-.2315.9341-.3544 1.911-.3544 2.9167 0 1.0056.1229 1.9826.3544 2.9166h4.8343c-.124-.9442-.1886-1.9199-.1886-2.9167s.0646-1.9724.1886-2.9166zm7.3585 0c-.1387.932-.2128 1.9085-.2128 2.9166 0 1.0082.0741 1.9848.2128 2.9167h8.741c.1387-.9319.2128-1.9085.2128-2.9166s-.0741-1.9847-.2129-2.9167zm11.2652 0c.1239.9442.1886 1.9199.1886 2.9167s-.0647 1.9725-.1886 2.9166h4.8343c.2315-.934.3543-1.911.3543-2.9166 0-1.0057-.1228-1.9826-.3543-2.9167zm3.9095-2.5h-4.393c-.2837-1.095-.6518-2.1264-1.0937-3.0745-.5438-1.1667-1.2099-2.2279-1.9842-3.1265 3.2689.9361 5.9707 3.2147 7.4709 6.201zm-6.9885 0h-7.6314c.2158-.7173.4726-1.3928.7642-2.0184.8256-1.7714 1.8982-3.0779 3.0514-3.844 1.1533.766 2.226 2.0726 3.0516 3.8441.2916.6255.5483 1.301.7642 2.0183zm-14.6199 10.8333h4.393c.2992 1.155.6924 2.2394 1.1671 3.2298.5293 1.1045 1.1704 2.112 1.9109 2.9713-3.269-.9361-5.9709-3.2147-7.471-6.2011zm14.6199 0h-7.6314c.231.7677.5088 1.4875.826 2.1493.8187 1.7082 1.8665 2.967 2.9898 3.7131 1.1533-.766 2.2258-2.0726 3.0514-3.8439.2916-.6256.5484-1.3011.7642-2.0185zm1.5018 3.0747c.4419-.9481.81-1.9796 1.0937-3.0747h4.393c-1.5001 2.9863-4.2019 5.2649-7.4708 6.2011.7743-.8986 1.4403-1.9598 1.9841-3.1264z" fill="#0675c4" fill-rule="evenodd"/></svg>