<svg fill="none" height="52" viewBox="0 0 52 52" width="52" xmlns="http://www.w3.org/2000/svg"><rect fill="#e9eff5" height="52" rx="4" width="52"/><path clip-rule="evenodd" d="m21.0001 21.0001v-5c0-1.841 1.4924-3.3334 3.3333-3.3334h11.6667c1.8409 0 3.3333 1.4924 3.3333 3.3334v11.6666c0 1.841-1.4924 3.3334-3.3333 3.3334h-5v5c0 1.8409-1.4924 3.3333-3.3334 3.3333h-11.6666c-1.841 0-3.3334-1.4924-3.3334-3.3333v-11.6667c0-1.8409 1.4924-3.3333 3.3334-3.3333zm3.3333-5.8334h11.6667c.4602 0 .8333.3731.8333.8334v11.6666c0 .4603-.3731.8334-.8333.8334h-5v-4.1667c0-1.8409-1.4924-3.3333-3.3334-3.3333h-4.1666v-5c0-.4603.3731-.8334.8333-.8334zm4.1667 15.8334v5c0 .4602-.3731.8333-.8334.8333h-11.6666c-.4603 0-.8334-.3731-.8334-.8333v-11.6667c0-.4602.3731-.8333.8334-.8333h5v4.1666c0 1.841 1.4924 3.3334 3.3333 3.3334zm0-2.5h-4.1667c-.4602 0-.8333-.3731-.8333-.8334v-4.1666h4.1666c.4603 0 .8334.3731.8334.8333z" fill="#0675c4" fill-rule="evenodd"/></svg>